<svg xmlns="http://www.w3.org/2000/svg" width="400" height="374.667" viewBox="0 0 300 281"><path d="M1.7 1.2C8.5 10 115.2 153.4 115.5 154.3c.3.7-6.6 8.9-15.3 18.3-8.6 9.3-34.7 37.6-58 62.7L-.1 281l13.3-.1h13.3L77 226c27.8-30.2 50.7-54.9 51-54.9.3-.1 19 24.6 41.5 54.9l41 54.9 44.7.1H300l-41.7-55.8c-75.7-101.2-79.6-106.5-79.7-107.6-.1-1 39.1-43.9 95.7-104.9L286.2 0l-13.3.1h-13.4L213 50.6c-25.6 27.7-46.8 50.3-47.2 50.1-.4-.1-17.6-22.8-38.3-50.5L90 0H45.4C9.8 0 1 .3 1.7 1.2zm169 139.1c49.7 66.5 90.3 121 90.3 121.3 0 .2-9 .4-20 .4h-20l-3.7-4.8C210 248.1 40.5 20.9 40.2 19.9c-.3-.6 6.9-.8 19.9-.7l20.3.3 90.3 120.8z"></path></svg>